<?xml version="1.0" encoding="UTF-8"?>
<!-- Generator: Adobe Illustrator 21.0.2, SVG Export Plug-In . SVG Version: 6.00 Build 0)  -->
<svg version="1.1" xmlns="http://www.w3.org/2000/svg" xmlns:xlink="http://www.w3.org/1999/xlink" x="0px" y="0px" viewBox="0 0 270 500" style="enable-background:new 0 0 270 500;" xml:space="preserve">
<style type="text/css">
	.st0{fill:#FFFFFF;}
	.st1{fill:#231F24;}
	.st2{fill:#533524;}
	.st3{fill:#FFCDA2;}
	.st4{fill:#F5A300;}
	.st5{fill:#E9DAC9;}
	.st6{fill:#18326E;}
	.st7{fill:#EFF0F0;}
	.st8{display:none;}
	.st9{display:inline;}
</style>
<g id="Layer_1">
	<g>
		<g>
			<path class="st0" d="M146.6,67.8c0-5.2-1.8-10-4.8-14c0.4-1.7,0.6-3.4,0.6-5.2c0-13.8-12.6-25.1-28.2-25.1c-0.3,0-0.6,0-0.9,0     c-5.1-6.5-13.6-10.7-23.1-10.7c-5.7,0-11.1,1.5-15.5,4.1c-3.7-1.6-7.8-2.4-12.1-2.4c-13.6,0-25,8.6-27.7,20     c-9,1.8-15.7,8.9-15.7,17.4c0,3.9,1.4,7.5,3.8,10.5c-2.7,3.1-4.4,7-4.4,11.2c0,10.1,9.2,18.3,20.6,18.3c0.9,0,1.8-0.1,2.6-0.2     c0,0.1,0,0.1,0,0.2c0,13.8,12.6,25.1,28.2,25.1c7.2,0,13.9-2.4,18.9-6.4c3.7,1.6,7.9,2.5,12.3,2.5c14.5,0,26.5-9.7,28.1-22.2     C139.4,87.2,146.6,78.2,146.6,67.8z"/>
			<circle class="st0" cx="116.5" cy="158.5" r="5.1"/>
			<circle class="st0" cx="100.2" cy="150.6" r="7.4"/>
			<circle class="st0" cx="89" cy="132.6" r="7.9"/>
		</g>
		<g>
			<g>
				<path class="st1" d="M117.9,367.2l41.5-1.9l39.3,1.6c-2.4,12.5-3.5,18.8-10.5,23.4l1.1,90.6h-6.9l-6.6-54.8l-3.4-31.5      c-12.4,1.3-14.1,1.2-24.6,0.5l-7.4,85.8h-8.7l-1.8-90.1C129,390.6,121.3,382.6,117.9,367.2z"/>
				<g>
					<path class="st2" d="M140.2,481c0-9.1-10.2-8.6-14-7.4c-3.8,1.2-14,7.4-14,7.4H140.2z"/>
					<path class="st2" d="M210.3,481c0,0-10.2-6.3-14-7.4c-3.8-1.1-14.6-1.4-14,7.4H210.3z"/>
				</g>
			</g>
			<g>
				<path class="st3" d="M187.7,209.1c4.8,0,8.8-3.9,8.8-8.8c0-4.6-3.5-8.4-8-8.7c1.5-7.4,3.4-14.3,5.1-19.3      c-15.8-0.4-33.2-3.4-45.9-8.8c-5.1,5.5-37.2,36.1-37.2,36.1l12,5.7c-0.1,0.8-2.4,13.7,0.4,28c0.9,4.8,8.8,8.6,18.1,11.6l0.6,5.2      c0,11.1,10.1,20.1,18.9,20.1c17.2,0,21-17.2,21.8-28l8.2-11.1c-5.1-0.7-5.9-10.4-4.7-22.3C186.4,209,187,209.1,187.7,209.1z"/>
				<path class="st4" d="M222.2,160.1c-0.6-0.3-1.3-0.7-1.9-1c-0.3-2.3-0.5-4.4,0.1-5.4c0.7-1.2-1.6,0.7-3.9,2.7      c-1.1-2.4-2-5-1.6-6.3c0.5-1.5-1.8,1.6-3.8,4.5c-25.6-11.5-43.8-11.7-56-8.1c-0.6-2.9-1.2-5.6-1.3-4.3c-0.3,2.1-5.5,6.3-7.8,8      c-9.2,5.1-12.7,11.8-12.4,12.2c6.5,11.1,30,6.6,30,6.6l-1.5,3l17.8-1l-3,7.7c0,0,10.9-3.7,14.5-3.6c-6.2,18-12.1,56.8,0.9,56.1      C230.1,229.2,227.5,162.9,222.2,160.1z"/>
				<g>
					<circle class="st1" cx="140.2" cy="187.3" r="3.9"/>
					<ellipse class="st0" cx="139" cy="185.8" rx="0.9" ry="0.9"/>
				</g>
			</g>
			<g>
				<g>
					<path class="st5" d="M95.8,286.4c16.7-15.9,46.5-30.2,46.5-30.2l3.2,1c22.4,13.9,34.6-2.1,34.6-2.1c0,0,45.1,0.3,45.1,0.3       l3.1,20.3l-29.7,3.7c0,0,4.1,74.6,0,89c0,0-25.7-1.9-38.6-1.8c-12.7,0-43.4,2.4-43.4,2.4c0-16.4,5.6-54.5,7-76.6       c-5.4,3.4-10.7,8.6-13.4,10.2L95.8,286.4z"/>
					<g>
						<polygon class="st0" points="180.1,255.1 160.5,259.6 142.3,256.3 144.3,275 160.5,260 176.8,275       "/>
						<g>
							<polygon class="st6" points="152.2,267.5 160.4,260 169.2,268.2 162.8,278.5 174.1,333.8 161,346.9 147.8,333.8 159.1,278.5                 "/>
						</g>
					</g>
				</g>
				<g>
					<path class="st3" d="M129.9,354.5c-2.1-1.3-7.8-6-7.8-6l-3.8-2.3l0.2-1.9c-3-0.4-5.9-0.5-7.1,0.1c-4.7-5.1-16-31.7-15.3-36.2       c0-1.5,6.6-5.9,10.5-9.8l-9.1-10.2c-1.7,1.7-9.9,9-15.6,16.4c-5.9,7.5,20.6,43.4,25.5,46.4c0.5,3.9,3.9,8.1,9,9.2       c0.5,0.1,3.1,4.9,4.6,6.1c0.6,0.5,1.4,0,1.6-0.8c0.2-0.7-3.7-6.2-3.7-6.2c0.3-0.2,0.6-0.3,0.9-0.5l6.5,6c0.9,0.4,1.8,0.1,2-0.6       c0.2-0.7-1.2-2-1.2-2l-5.4-5.5c0.1-0.2,0.3-0.5,0.4-0.7l6.8,6.2c0.9,0.4,1.8,0.1,2-0.6c0.2-0.7-0.4-1.5-1.2-2       c-1.9-1.3-6.8-6.1-6.8-6.1c0-0.3,0.1-0.5,0.1-0.8l6.4,4.5c0.9,0.4,1.8,0.1,2-0.6C131.3,355.8,130.7,355,129.9,354.5z"/>
					<g>
						<path class="st3" d="M228.7,206.8c0.8-2.5-0.2-5.3-1.2-7.4l-0.2-2.6c-0.1-1-0.9-1.8-1.8-1.7c-0.2,0-0.4,0.1-0.5,0.1l-6.6-11.8        c-0.5-0.9-2-1.2-2.8-0.8c-0.8,0.3-1.5,1.6-0.9,2.5l5.8,10.4c0,0,0,0,0,0c0-0.1,0-0.1-0.1-0.2l-1.6-2.8        c-0.4-0.8-1.5-1.1-2.2-0.6c-0.8,0.5-1.1,1.5-0.6,2.2l0.5,0.8c-0.5-0.5-1.3-0.7-2-0.3c-0.8,0.5-1.1,1.5-0.6,2.2l0.8,1.3        c-0.5-0.4-1.3-0.6-1.9-0.2c-0.8,0.5-1.1,1.5-0.6,2.3l1.6,2.8c0,0.1,0,0.2,0,0.2c1.6,3.6,4.6,7.9,8.7,7.8        c2.6,6.7,11.9,47.2,11.9,47.2l-8.3,1.8l2.1,13.4c4.6-1,17.5-5,18.8-7.2C249.6,262,231.5,213.3,228.7,206.8z"/>
						<g>
							<path class="st4" d="M203.4,190.6c0,0,12.1-3.4,14.9-1.7c2.7,1.6-7.9-9.9-7.9-9.9"/>
							<path class="st4" d="M208,187.4c0,0,7.7-4.3,9.9-3.6c2.1,0.7-7-5.5-7-5.5"/>
							<path class="st4" d="M206.9,188.7c0,0,7.7-4.3,9.9-3.6c2.1,0.7-7-5.5-7-5.5"/>
						</g>
					</g>
				</g>
			</g>
			<ellipse class="st7" cx="159.4" cy="482.2" rx="76.8" ry="4.5"/>
		</g>
	</g>
</g>
<g id="Layer_2" class="st8">
	<g class="st9">
		<g>
			<path class="st0" d="M146.6,67.8c0-5.2-1.8-10-4.8-14c0.4-1.7,0.6-3.4,0.6-5.2c0-13.8-12.6-25.1-28.2-25.1c-0.3,0-0.6,0-0.9,0     c-5.1-6.5-13.6-10.7-23.1-10.7c-5.7,0-11.1,1.5-15.5,4.1c-3.7-1.6-7.8-2.4-12.1-2.4c-13.6,0-25,8.6-27.7,20     c-9,1.8-15.7,8.9-15.7,17.4c0,3.9,1.4,7.5,3.8,10.5c-2.7,3.1-4.4,7-4.4,11.2c0,10.1,9.2,18.3,20.6,18.3c0.9,0,1.8-0.1,2.6-0.2     c0,0.1,0,0.1,0,0.2c0,13.8,12.6,25.1,28.2,25.1c7.2,0,13.9-2.4,18.9-6.4c3.7,1.6,7.9,2.5,12.3,2.5c14.5,0,26.5-9.7,28.1-22.2     C139.4,87.2,146.6,78.2,146.6,67.8z"/>
			<circle class="st0" cx="116.5" cy="158.5" r="5.1"/>
			<circle class="st0" cx="100.2" cy="150.6" r="7.4"/>
			<circle class="st0" cx="89" cy="132.6" r="7.9"/>
		</g>
		<g>
			<g>
				<path class="st1" d="M117.9,367.2l41.5-1.9l39.3,1.6c-2.4,12.5-3.5,18.8-10.5,23.4l1.1,90.6h-6.9l-6.6-54.8l-3.4-31.5      c-12.4,1.3-14.1,1.2-24.6,0.5l-7.4,85.8h-8.7l-1.8-90.1C129,390.6,121.3,382.6,117.9,367.2z"/>
				<g>
					<path class="st2" d="M140.2,481c0-9.1-10.2-8.6-14-7.4c-3.8,1.2-14,7.4-14,7.4H140.2z"/>
					<path class="st2" d="M210.3,481c0,0-10.2-6.3-14-7.4c-3.8-1.1-14.6-1.4-14,7.4H210.3z"/>
				</g>
			</g>
			<g>
				<path class="st3" d="M187.7,209.1c4.8,0,8.8-3.9,8.8-8.8c0-4.6-3.5-8.4-8-8.7c1.5-7.4,3.4-14.3,5.1-19.3      c-15.8-0.4-33.2-3.4-45.9-8.8c-5.1,5.5-37.2,36.1-37.2,36.1l12,5.7c-0.1,0.8-2.4,13.7,0.4,28c0.9,4.8,8.8,8.6,18.1,11.6l0.6,5.2      c0,11.1,10.1,20.1,18.9,20.1c17.2,0,21-17.2,21.8-28l8.2-11.1c-5.1-0.7-5.9-10.4-4.7-22.3C186.4,209,187,209.1,187.7,209.1z"/>
				<path class="st4" d="M222.2,160.1c-0.6-0.3-1.3-0.7-1.9-1c-0.3-2.3-0.5-4.4,0.1-5.4c0.7-1.2-1.6,0.7-3.9,2.7      c-1.1-2.4-2-5-1.6-6.3c0.5-1.5-1.8,1.6-3.8,4.5c-25.6-11.5-43.8-11.7-56-8.1c-0.6-2.9-1.2-5.6-1.3-4.3c-0.3,2.1-5.5,6.3-7.8,8      c-9.2,5.1-12.7,11.8-12.4,12.2c6.5,11.1,30,6.6,30,6.6l-1.5,3l17.8-1l-3,7.7c0,0,10.9-3.7,14.5-3.6c-6.2,18-12.1,56.8,0.9,56.1      C230.1,229.2,227.5,162.9,222.2,160.1z"/>
				<g>
					<circle class="st1" cx="140.2" cy="187.3" r="3.9"/>
					<ellipse class="st0" cx="139" cy="185.8" rx="0.9" ry="0.9"/>
				</g>
			</g>
			<g>
				<g>
					<path class="st5" d="M95.8,286.4c16.7-15.9,46.5-30.2,46.5-30.2l3.2,1c22.4,13.9,34.6-2.1,34.6-2.1c0,0,45.1,0.3,45.1,0.3       l3.1,20.3l-29.7,3.7c0,0,4.1,74.6,0,89c0,0-25.7-1.9-38.6-1.8c-12.7,0-43.4,2.4-43.4,2.4c0-16.4,5.6-54.5,7-76.6       c-5.4,3.4-10.7,8.6-13.4,10.2L95.8,286.4z"/>
					<g>
						<polygon class="st0" points="180.1,255.1 160.5,259.6 142.3,256.3 144.3,275 160.5,260 176.8,275       "/>
						<g>
							<polygon class="st6" points="152.2,267.5 160.4,260 169.2,268.2 162.8,278.5 174.1,333.8 161,346.9 147.8,333.8 159.1,278.5                 "/>
						</g>
					</g>
				</g>
				<g>
					<path class="st3" d="M129.9,354.5c-2.1-1.3-7.8-6-7.8-6l-3.8-2.3l0.2-1.9c-3-0.4-5.9-0.5-7.1,0.1c-4.7-5.1-16-31.7-15.3-36.2       c0-1.5,6.6-5.9,10.5-9.8l-9.1-10.2c-1.7,1.7-9.9,9-15.6,16.4c-5.9,7.5,20.6,43.4,25.5,46.4c0.5,3.9,3.9,8.1,9,9.2       c0.5,0.1,3.1,4.9,4.6,6.1c0.6,0.5,1.4,0,1.6-0.8c0.2-0.7-3.7-6.2-3.7-6.2c0.3-0.2,0.6-0.3,0.9-0.5l6.5,6c0.9,0.4,1.8,0.1,2-0.6       c0.2-0.7-1.2-2-1.2-2l-5.4-5.5c0.1-0.2,0.3-0.5,0.4-0.7l6.8,6.2c0.9,0.4,1.8,0.1,2-0.6c0.2-0.7-0.4-1.5-1.2-2       c-1.9-1.3-6.8-6.1-6.8-6.1c0-0.3,0.1-0.5,0.1-0.8l6.4,4.5c0.9,0.4,1.8,0.1,2-0.6C131.3,355.8,130.7,355,129.9,354.5z"/>
					<g>
						<path class="st3" d="M228.7,206.8c0.8-2.5-0.2-5.3-1.2-7.4l-0.2-2.6c-0.1-1-0.9-1.8-1.8-1.7c-0.2,0-0.4,0.1-0.5,0.1l-6.6-11.8        c-0.5-0.9-2-1.2-2.8-0.8c-0.8,0.3-1.5,1.6-0.9,2.5l5.8,10.4c0,0,0,0,0,0c0-0.1,0-0.1-0.1-0.2l-1.6-2.8        c-0.4-0.8-1.5-1.1-2.2-0.6c-0.8,0.5-1.1,1.5-0.6,2.2l0.5,0.8c-0.5-0.5-1.3-0.7-2-0.3c-0.8,0.5-1.1,1.5-0.6,2.2l0.8,1.3        c-0.5-0.4-1.3-0.6-1.9-0.2c-0.8,0.5-1.1,1.5-0.6,2.3l1.6,2.8c0,0.1,0,0.2,0,0.2c1.6,3.6,4.6,7.9,8.7,7.8        c2.6,6.7,11.9,47.2,11.9,47.2l-8.3,1.8l2.1,13.4c4.6-1,17.5-5,18.8-7.2C249.6,262,231.5,213.3,228.7,206.8z"/>
						<g>
							<path class="st4" d="M203.4,190.6c0,0,12.1-3.4,14.9-1.7c2.7,1.6-7.9-9.9-7.9-9.9"/>
							<path class="st4" d="M208,187.4c0,0,7.7-4.3,9.9-3.6c2.1,0.7-7-5.5-7-5.5"/>
							<path class="st4" d="M206.9,188.7c0,0,7.7-4.3,9.9-3.6c2.1,0.7-7-5.5-7-5.5"/>
						</g>
					</g>
				</g>
			</g>
			<ellipse class="st7" cx="159.4" cy="482.2" rx="76.8" ry="4.5"/>
		</g>
	</g>
</g>
</svg>