<?xml version="1.0" encoding="utf-8"?>
<!-- Generator: Adobe Illustrator 21.0.2, SVG Export Plug-In . SVG Version: 6.00 Build 0)  -->
<svg version="1.1" id="Layer_1" xmlns="http://www.w3.org/2000/svg" xmlns:xlink="http://www.w3.org/1999/xlink" x="0px" y="0px"
	 width="512px" height="512px" viewBox="0 0 512 512" enable-background="new 0 0 512 512" xml:space="preserve">
<path d="M256,4.6C117.2,4.6,4.6,117.2,4.6,256S117.2,507.4,256,507.4S507.4,394.8,507.4,256S394.8,4.6,256,4.6z M257.5,499
	C123.6,499,15,390.4,15,256.5S123.6,14,257.5,14S500,122.6,500,256.5S391.4,499,257.5,499z"/>
<path id="path40" d="M309,104h-45c-44.2,0-81.6,33.6-81.6,98.9c0,39.2,18.1,68,50.5,82.3l-60.3,109.2c-2,3.6,0,6.3,3.2,6.3h28
	c2.4,0,3.9-0.8,4.7-2.8l54.8-107.2H283V398c0,1.2,1.2,2.8,2.8,2.8h24.5c2.4,0,3.2-1.2,3.2-3.2V107.9C313.3,105.2,311.7,104,309,104z
	 M283,265.4h-16.6c-26,0-51.3-19-51.3-66.5c0-49.5,23.7-69.6,47.7-69.6H283L283,265.4L283,265.4z"/>
</svg>
