<?xml version="1.0" encoding="utf-8"?>
<!-- Generator: Adobe Illustrator 18.1.1, SVG Export Plug-In . SVG Version: 6.00 Build 0)  -->
<svg version="1.1" id="Layer_1" xmlns="http://www.w3.org/2000/svg" xmlns:xlink="http://www.w3.org/1999/xlink" viewBox="0 0 191 213" enable-background="new 0 0 191 213" xml:space="preserve">
<g>
	<polygon fill="#231F20" points="137,116.9 139,114.5 137.4,109.6 133.3,109.6 127.2,128.6 131.6,123.3 135.2,111.1 	"/>
	<g>
		<polygon fill="#231F20" points="140,133.8 142.1,140.8 145.4,140.8 138.8,120.2 136.7,122.7 139.2,131.2 129.5,131.2 123.1,138.9 
			122.5,140.8 125.6,140.8 127.7,133.8 		"/>
		<path fill="#231F20" d="M95.2,141.3c5.1,0,9-1.2,11.6-3.7c0.2-0.2,0.4-0.4,0.7-0.7l-2.1-2.5c-0.4,0.6-0.8,1.2-1.3,1.6
			c-1,1-2.3,1.6-3.7,2c-1.4,0.4-3,0.6-4.7,0.6c-0.7,0-1.3,0-1.9-0.1c-0.6,0-1.1-0.1-1.5-0.2l-0.5-0.1v-20.2l-3.1-3.7v26.4
			c0.8,0.1,1.7,0.2,2.8,0.3C92.6,141.2,93.9,141.3,95.2,141.3z"/>
	</g>
	<path fill="#231F20" d="M105.5,113c-2.5-2.6-6.3-3.9-11.5-3.9c-1.3,0-2.6,0-3.9,0.1c-0.4,0-0.8,0.1-1.1,0.1l2.1,2.6
		c0.4-0.1,0.9-0.1,1.5-0.1c0.6,0,1.2,0,1.8,0c1.7,0,3.2,0.2,4.6,0.7c1.4,0.4,2.7,1.2,3.7,2.2c1,1,1.8,2.3,2.4,3.9
		c0.6,1.5,0.8,3.4,0.8,5.6c0,1.8-0.2,3.5-0.5,4.9l2.5,3c0.9-2.1,1.4-4.7,1.4-7.7C109.2,119.3,108,115.6,105.5,113z"/>
</g>
<g>
	<path fill="#231F20" d="M116.8,181.6c-0.8,0-1.6-0.3-2.3-0.9l-35.4-32c-1-0.9-1.8-2.6-1.8-4V90.3c0-1.8,1.4-3.2,3.2-3.2H153
		c1.8,0,3.2,1.4,3.2,3.2v54.3c0,1.4-0.8,3.1-1.8,4l-35.4,32C118.5,181.3,117.6,181.6,116.8,181.6z M80.6,90c-0.2,0-0.3,0.1-0.3,0.3
		v54.3c0,0.5,0.4,1.5,0.8,1.8l35.4,32c0.2,0.1,0.5,0.1,0.6,0l35.4-32c0.4-0.4,0.8-1.3,0.8-1.8V90.3c0-0.2-0.1-0.3-0.3-0.3H80.6z"/>
</g>
</svg>
