<svg xmlns="http://www.w3.org/2000/svg" xmlns:xlink="http://www.w3.org/1999/xlink" preserveAspectRatio="xMidYMid" width="25" height="27" viewBox="0 0 25 27">
  <defs>
    <style>

      .cls-2 {
        fill: #718a9c;
      }
    </style>
  </defs>
  <path d="M24.712,-0.014 C24.712,-0.014 7.731,5.797 7.731,5.797 C7.731,5.797 7.731,20.192 7.731,20.192 C6.928,19.271 5.728,18.685 4.386,18.685 C1.971,18.685 0.012,20.579 0.012,22.916 C0.012,25.253 1.971,27.147 4.386,27.147 C6.776,27.147 8.716,25.291 8.756,22.989 C8.756,22.989 8.760,22.989 8.760,22.989 C8.760,22.989 8.760,6.501 8.760,6.501 C8.760,6.501 23.683,1.394 23.683,1.394 C23.683,1.394 23.683,14.716 23.683,14.716 C22.880,13.796 21.680,13.209 20.338,13.209 C17.922,13.209 15.964,15.103 15.964,17.441 C15.964,19.777 17.922,21.672 20.338,21.672 C22.753,21.672 24.712,19.777 24.712,17.441 C24.712,17.360 24.704,17.282 24.699,17.204 C24.699,17.204 24.712,17.204 24.712,17.204 C24.712,17.204 24.712,-0.014 24.712,-0.014 ZM4.386,26.151 C2.542,26.151 1.041,24.700 1.041,22.916 C1.041,21.132 2.542,19.679 4.386,19.679 C6.230,19.679 7.731,21.132 7.731,22.916 C7.731,24.700 6.230,26.151 4.386,26.151 ZM20.338,20.677 C18.493,20.677 16.993,19.225 16.993,17.441 C16.993,15.657 18.493,14.205 20.338,14.205 C22.182,14.205 23.683,15.657 23.683,17.441 C23.683,19.225 22.182,20.677 20.338,20.677 Z" id="path-1" class="cls-2" fill-rule="evenodd"/>
</svg>
