<svg xmlns="http://www.w3.org/2000/svg" xmlns:xlink="http://www.w3.org/1999/xlink" preserveAspectRatio="xMidYMid" width="36" height="32" viewBox="0 0 36 32">
  <defs>
    <style>

      .cls-2 {
        fill: #718a9c;
      }
    </style>
  </defs>
  <path d="M-0.000,31.998 C-0.000,31.998 -0.000,-0.001 -0.000,-0.001 C-0.000,-0.001 36.000,-0.001 36.000,-0.001 C36.000,-0.001 36.000,31.998 36.000,31.998 C36.000,31.998 -0.000,31.998 -0.000,31.998 ZM4.666,1.332 C4.666,1.332 1.333,1.332 1.333,1.332 C1.333,1.332 1.333,30.665 1.333,30.665 C1.333,30.665 4.666,30.665 4.666,30.665 C4.666,30.665 4.666,1.332 4.666,1.332 ZM34.666,1.332 C34.666,1.332 6.000,1.332 6.000,1.332 C6.000,1.332 6.000,30.665 6.000,30.665 C6.000,30.665 34.666,30.665 34.666,30.665 C34.666,30.665 34.666,1.332 34.666,1.332 ZM20.666,3.333 C27.662,3.333 33.333,9.003 33.333,15.999 C33.333,22.994 27.662,28.665 20.666,28.665 C13.671,28.665 8.000,22.994 8.000,15.999 C8.000,9.003 13.671,3.333 20.666,3.333 ZM20.666,27.332 C26.916,27.332 32.000,22.248 32.000,15.999 C32.000,9.749 26.916,4.665 20.666,4.665 C14.417,4.665 9.333,9.749 9.333,15.999 C9.333,22.248 14.417,27.332 20.666,27.332 ZM20.666,11.999 C22.876,11.999 24.666,13.790 24.666,15.999 C24.666,18.207 22.876,19.998 20.666,19.998 C18.457,19.998 16.666,18.207 16.666,15.999 C16.666,13.790 18.457,11.999 20.666,11.999 ZM20.666,18.665 C22.136,18.665 23.333,17.469 23.333,15.999 C23.333,14.528 22.136,13.332 20.666,13.332 C19.196,13.332 17.999,14.528 17.999,15.999 C17.999,17.469 19.196,18.665 20.666,18.665 ZM20.666,15.332 C21.034,15.332 21.333,15.630 21.333,15.999 C21.333,16.367 21.034,16.665 20.666,16.665 C20.298,16.665 19.999,16.367 19.999,15.999 C19.999,15.630 20.298,15.332 20.666,15.332 Z" id="path-1" class="cls-2" fill-rule="evenodd"/>
</svg>
