<svg xmlns="http://www.w3.org/2000/svg" xmlns:xlink="http://www.w3.org/1999/xlink" preserveAspectRatio="xMidYMid" width="32" height="32" viewBox="0 0 32 32">
  <defs>
    <style>

      .cls-2 {
        fill: #718a9c;
      }
    </style>
  </defs>
  <path d="M15.593,-0.011 C15.593,-0.011 6.274,-0.011 6.274,-0.011 C6.274,-0.011 5.193,-0.011 5.193,-0.011 C2.083,-0.011 -0.007,2.068 -0.007,5.163 C-0.007,5.163 -0.007,26.672 -0.007,26.672 C-0.007,27.694 0.376,31.029 5.305,31.029 C5.305,31.029 31.193,31.029 31.193,31.029 C31.193,31.029 31.193,-0.011 31.193,-0.011 C31.193,-0.011 15.593,-0.011 15.593,-0.011 ZM14.293,1.283 C14.293,1.283 14.293,13.655 14.293,13.655 C14.293,13.655 11.109,10.770 11.109,10.770 C11.109,10.770 7.574,13.729 7.574,13.729 C7.574,13.729 7.574,1.283 7.574,1.283 C7.574,1.283 14.293,1.283 14.293,1.283 ZM5.193,1.283 C5.193,1.283 6.274,1.283 6.274,1.283 C6.274,1.283 6.274,16.507 6.274,16.507 C6.274,16.507 11.075,12.489 11.075,12.489 C11.075,12.489 15.593,16.581 15.593,16.581 C15.593,16.581 15.593,1.283 15.593,1.283 C15.593,1.283 29.893,1.283 29.893,1.283 C29.893,1.283 29.893,22.622 29.893,22.622 C29.893,22.622 5.193,22.622 5.193,22.622 C3.539,22.622 2.197,23.114 1.293,23.973 C1.293,23.973 1.293,5.163 1.293,5.163 C1.293,2.806 2.824,1.283 5.193,1.283 ZM5.305,29.735 C2.325,29.735 1.463,28.391 1.319,27.104 C1.322,25.107 2.769,23.915 5.193,23.915 C5.193,23.915 29.893,23.915 29.893,23.915 C29.893,23.915 29.893,29.735 29.893,29.735 C29.893,29.735 5.305,29.735 5.305,29.735 Z" id="path-1" class="cls-2" fill-rule="evenodd"/>
</svg>
