<svg xmlns="http://www.w3.org/2000/svg" xmlns:xlink="http://www.w3.org/1999/xlink" preserveAspectRatio="xMidYMid" width="27" height="22" viewBox="0 0 27 22">
  <defs>
    <style>

      .cls-2 {
        fill: #ffffff;
      }
    </style>
  </defs>
  <path d="M23.698,-0.002 C23.698,-0.002 3.101,-0.002 3.101,-0.002 C1.383,-0.002 -0.014,1.405 -0.014,3.141 C-0.014,3.141 -0.014,15.615 -0.014,15.615 C-0.014,17.348 1.380,18.758 3.101,18.758 C3.101,18.758 5.275,18.758 5.275,18.758 C5.275,18.758 7.188,21.344 7.188,21.344 C7.317,21.507 7.741,21.998 8.390,21.998 C8.681,21.998 9.134,21.868 9.558,21.310 C9.558,21.310 11.471,18.758 11.471,18.758 C11.471,18.758 23.701,18.758 23.701,18.758 C25.419,18.758 26.816,17.351 26.816,15.615 C26.816,15.615 26.816,3.172 26.816,3.172 C26.810,1.438 25.416,-0.002 23.698,-0.002 ZM25.611,15.645 C25.611,16.724 24.734,17.575 23.698,17.575 C23.698,17.575 11.144,17.575 11.144,17.575 C10.948,17.575 10.786,17.673 10.657,17.806 C10.657,17.806 8.582,20.622 8.582,20.622 C8.453,20.785 8.386,20.819 8.386,20.819 C8.353,20.819 8.224,20.722 8.158,20.622 C8.158,20.622 6.083,17.806 6.083,17.806 C5.987,17.642 5.792,17.575 5.596,17.575 C5.596,17.575 3.131,17.575 3.131,17.575 C2.061,17.575 1.217,16.691 1.217,15.645 C1.217,15.645 1.217,3.172 1.217,3.172 C1.217,2.093 2.094,1.241 3.131,1.241 C3.131,1.241 23.728,1.241 23.728,1.241 C24.797,1.241 25.641,2.126 25.641,3.172 C25.641,3.172 25.641,15.645 25.641,15.645 C25.641,15.645 25.611,15.645 25.611,15.645 ZM21.848,9.522 C21.848,9.849 21.590,10.110 21.265,10.110 C21.265,10.110 5.467,10.110 5.467,10.110 C5.143,10.110 4.885,9.849 4.885,9.522 C4.885,9.194 5.143,8.934 5.467,8.934 C5.467,8.934 21.265,8.934 21.265,8.934 C21.590,8.901 21.848,9.164 21.848,9.522 ZM21.848,13.156 C21.848,13.484 21.590,13.744 21.265,13.744 C21.265,13.744 5.467,13.744 5.467,13.744 C5.143,13.744 4.885,13.484 4.885,13.156 C4.885,12.829 5.143,12.568 5.467,12.568 C5.467,12.568 21.265,12.568 21.265,12.568 C21.590,12.535 21.848,12.796 21.848,13.156 ZM4.852,5.920 C4.852,5.594 5.110,5.333 5.434,5.333 C5.434,5.333 14.937,5.333 14.937,5.333 C15.261,5.333 15.520,5.594 15.520,5.920 C15.520,6.248 15.261,6.509 14.937,6.509 C14.937,6.509 5.467,6.509 5.467,6.509 C5.143,6.545 4.852,6.248 4.852,5.920 Z" id="path-1" class="cls-2" fill-rule="evenodd"/>
</svg>
