<svg xmlns="http://www.w3.org/2000/svg" xmlns:xlink="http://www.w3.org/1999/xlink" preserveAspectRatio="xMidYMid" width="26" height="22" viewBox="0 0 26 22">
  <defs>
    <style>

      .cls-2 {
        fill: #ffffff;
      }
    </style>
  </defs>
  <path d="M24.813,-0.002 C24.813,-0.002 23.160,-0.002 23.160,-0.002 C22.517,-0.002 22.211,0.343 22.089,0.560 C21.967,0.780 21.936,0.965 21.936,1.093 C21.936,1.093 21.692,2.376 21.692,2.376 C21.692,2.376 1.183,2.376 1.183,2.376 C0.755,2.376 0.449,2.501 0.234,2.753 C0.050,2.972 -0.041,3.254 -0.010,3.567 C-0.010,3.598 -0.010,3.630 -0.010,3.630 C-0.010,3.630 2.286,13.360 2.286,13.360 C2.408,13.893 2.867,14.488 3.695,14.488 C3.695,14.488 19.215,14.488 19.215,14.488 C19.215,14.488 18.787,16.644 18.787,16.644 C18.572,16.581 18.359,16.552 18.144,16.552 C16.857,16.552 15.786,17.459 15.542,18.710 C15.542,18.710 7.274,18.710 7.274,18.710 C6.999,17.491 5.959,16.552 4.672,16.552 C3.204,16.552 2.008,17.772 2.008,19.276 C2.008,20.775 3.201,21.998 4.672,21.998 C5.959,21.998 7.030,21.091 7.274,19.841 C7.274,19.841 15.508,19.841 15.508,19.841 C15.783,21.059 16.823,21.998 18.110,21.998 C19.578,21.998 20.774,20.779 20.774,19.276 C20.774,18.429 20.405,17.680 19.824,17.178 C19.824,17.178 20.680,12.891 20.680,12.891 C20.680,12.891 20.680,12.891 20.680,12.891 C20.680,12.891 22.732,3.005 22.732,3.005 C22.732,3.005 22.732,3.005 22.732,3.005 C22.732,3.005 22.732,3.005 22.732,3.005 C22.732,3.005 23.038,1.191 23.038,1.191 C23.038,1.128 23.038,1.191 23.038,1.128 C23.038,1.128 23.101,1.095 23.160,1.095 C23.160,1.095 24.813,1.095 24.813,1.095 C25.119,1.095 25.362,0.846 25.362,0.535 C25.365,0.250 25.119,-0.002 24.813,-0.002 ZM4.672,20.897 C3.816,20.897 3.142,20.208 3.142,19.334 C3.142,18.459 3.816,17.769 4.672,17.769 C5.528,17.769 6.203,18.459 6.203,19.334 C6.203,20.176 5.528,20.897 4.672,20.897 ZM18.110,20.897 C17.254,20.897 16.579,20.208 16.579,19.334 C16.579,18.459 17.254,17.769 18.110,17.769 C18.966,17.769 19.640,18.459 19.640,19.334 C19.640,20.176 18.968,20.897 18.110,20.897 ZM1.183,3.535 C1.183,3.535 21.477,3.535 21.477,3.535 C21.477,3.535 21.049,5.632 21.049,5.632 C21.049,5.632 1.643,5.632 1.643,5.632 C1.643,5.632 1.152,3.567 1.152,3.567 C1.152,3.567 1.152,3.535 1.152,3.535 C1.152,3.535 1.152,3.535 1.183,3.535 ZM3.386,13.105 C3.386,13.105 1.886,6.785 1.886,6.785 C1.886,6.785 20.774,6.785 20.774,6.785 C20.774,6.785 19.428,13.262 19.428,13.262 C19.396,13.355 19.275,13.355 19.243,13.355 C19.243,13.355 3.723,13.355 3.723,13.355 C3.539,13.358 3.448,13.262 3.386,13.105 Z" id="path-1" class="cls-2" fill-rule="evenodd"/>
</svg>
