<?xml version="1.0" encoding="utf-8"?>
<!-- Generator: Adobe Illustrator 21.0.2, SVG Export Plug-In . SVG Version: 6.00 Build 0)  -->
<svg version="1.1" id="Layer_1" xmlns="http://www.w3.org/2000/svg" xmlns:xlink="http://www.w3.org/1999/xlink" x="0px" y="0px"
	 width="283.5px" height="283.5px" viewBox="0 0 283.5 283.5" style="enable-background:new 0 0 283.5 283.5;" xml:space="preserve"
	>

<g>
	<g>
		<g>
			<path class="st0" d="M271.1,57.8c7.9-12.4,6.4-29-4.2-39.6s-27.3-12.2-39.6-4.2C185.3-8.7,133.3-1.2,99.5,32.6
				C62.6,69.6,57.6,127.5,86.8,170c-17.6,13.3-70.5,53.6-76.5,59.6c-6,6-9.3,14.1-9.3,22.6c0,8.5,3.3,16.4,9.3,22.5
				c6.2,6.2,14.3,9.3,22.5,9.3c8.1,0,16.3-3.1,22.5-9.3c6-6,46.2-58.9,59.6-76.5c42.5,29.2,100.6,24.1,137.4-12.7
				C286.2,151.5,293.6,99.7,271.1,57.8L271.1,57.8z M243.3,176.4c-33.9,33.9-88,37.3-125.8,7.9c-1.4-1-3-1.5-4.8-1.3
				c-1.7,0.2-3.2,1.1-4.2,2.5C86,215.2,50.9,261,46.3,265.6c-7.5,7.5-19.5,7.5-26.9,0c-3.6-3.6-5.6-8.4-5.6-13.5
				c0-5.1,2-9.8,5.6-13.5c4.7-4.7,50.4-39.8,80.1-62.3c1.4-1,2.2-2.5,2.5-4.2c0.2-1.7-0.2-3.4-1.3-4.8c-29.4-37.8-26-91.9,7.9-125.8
				c18.3-18.3,42.8-28,67.4-28c16.6,0,33.4,4.4,48.5,13.3c2.4,1.4,5.3,1.1,7.4-0.7c7.5-6.6,18.9-6.2,26,0.9s7.5,18.5,0.9,26
				c-1.8,2.1-2.1,5.1-0.7,7.4C280.1,98,274.1,145.6,243.3,176.4L243.3,176.4z"/>
		</g>
	</g>
	<path d="M175.9,26.4c-45.5,0-82.6,37.1-82.6,82.6s37.1,82.6,82.6,82.6s82.6-37.1,82.6-82.6C258.5,63.4,221.4,26.4,175.9,26.4
		L175.9,26.4z M175.9,178.9c-38.5,0-69.9-31.4-69.9-69.9s31.4-69.9,69.9-69.9s69.9,31.4,69.9,69.9S214.4,178.9,175.9,178.9
		L175.9,178.9z"/>
</g>
</svg>
