<svg xmlns="http://www.w3.org/2000/svg" xmlns:xlink="http://www.w3.org/1999/xlink" preserveAspectRatio="xMidYMid" width="46" height="44" viewBox="0 0 46 44">
  <defs>
    <style>

      .cls-2 {
        fill: #000000;
        filter: url(#color-overlay-1);
      }
    </style>

    <filter id="color-overlay-1" filterUnits="userSpaceOnUse">
      <feFlood flood-color="#718a9c" flood-opacity="1"/>
      <feComposite operator="in" in2="SourceGraphic"/>
      <feBlend mode="normal" in2="SourceGraphic" result="colorOverlay"/>
    </filter>
  </defs>
  <path d="M45.789,21.210 C45.789,19.063 44.076,17.407 41.804,17.407 C41.804,17.407 35.811,17.407 35.811,17.407 C35.811,17.407 35.811,17.407 35.811,17.407 C35.811,17.407 27.472,17.407 27.472,17.407 C28.388,15.298 30.032,10.874 30.032,6.308 C30.032,1.095 27.397,0.001 25.187,0.001 C23.817,0.001 21.836,1.032 21.836,2.896 C21.836,3.682 21.711,10.681 17.405,14.267 C12.818,18.086 11.514,19.085 9.001,19.085 C6.071,19.085 0.864,19.149 0.864,19.149 C0.864,19.149 -0.005,19.160 -0.005,19.160 C-0.005,19.160 -0.005,39.504 -0.005,39.504 C-0.005,39.504 9.586,39.504 9.586,39.504 C10.209,39.504 12.077,40.330 13.726,41.058 C16.449,42.261 19.534,43.626 21.611,43.626 C21.611,43.626 35.462,43.626 35.462,43.626 C35.462,43.626 35.462,43.621 35.462,43.621 C37.717,43.621 39.552,41.860 39.552,39.697 C39.552,38.816 39.236,38.009 38.723,37.354 C40.376,36.884 41.596,35.387 41.596,33.598 C41.596,32.699 41.277,31.880 40.763,31.217 C42.389,30.701 43.579,29.204 43.579,27.421 C43.579,26.524 43.269,25.703 42.765,25.035 C44.497,24.605 45.789,23.061 45.789,21.210 ZM41.804,23.417 C41.804,23.417 39.545,23.417 39.545,23.417 C39.545,23.417 38.744,23.417 38.744,23.417 C38.744,23.417 38.744,25.166 38.744,25.166 C38.744,25.166 39.545,25.166 39.545,25.166 C40.797,25.166 41.817,26.177 41.817,27.421 C41.817,28.664 40.797,29.676 39.545,29.676 C39.545,29.676 37.645,29.676 37.645,29.676 C37.645,29.676 36.982,29.676 36.982,29.676 C36.982,29.676 36.982,31.424 36.982,31.424 C36.982,31.424 37.645,31.424 37.645,31.424 C38.852,31.424 39.834,32.399 39.834,33.598 C39.834,34.798 38.852,35.773 37.645,35.773 C37.645,35.773 35.462,35.773 35.462,35.773 C35.462,35.773 35.221,35.773 35.221,35.773 C35.221,35.773 35.221,37.522 35.221,37.522 C35.221,37.522 35.462,37.522 35.462,37.522 C36.745,37.522 37.791,38.498 37.791,39.697 C37.791,40.897 36.745,41.872 35.462,41.872 C35.462,41.872 33.212,41.872 33.212,41.872 C33.212,41.872 33.212,41.877 33.212,41.877 C33.212,41.877 21.611,41.877 21.611,41.877 C19.908,41.877 16.877,40.537 14.443,39.461 C12.049,38.404 10.536,37.756 9.586,37.756 C9.586,37.756 1.756,37.756 1.756,37.756 C1.756,37.756 1.756,20.887 1.756,20.887 C3.360,20.870 6.815,20.833 9.001,20.833 C12.259,20.833 13.969,19.409 18.537,15.606 C23.353,11.596 23.597,4.315 23.597,2.896 C23.597,2.183 24.701,1.749 25.187,1.749 C26.109,1.749 28.271,1.749 28.271,6.308 C28.271,12.069 25.341,17.825 25.312,17.883 C25.312,17.883 24.657,19.155 24.657,19.155 C24.657,19.155 30.414,19.155 30.414,19.155 C30.414,19.155 34.050,19.155 34.050,19.155 C34.050,19.155 35.447,19.155 35.447,19.155 C35.477,19.177 35.496,19.155 35.496,19.155 C35.496,19.155 41.804,19.155 41.804,19.155 C43.092,19.155 44.028,20.041 44.028,21.210 C44.028,22.427 43.030,23.417 41.804,23.417 Z" id="path-1" class="cls-2" fill-rule="evenodd"/>
</svg>
