<svg xmlns="http://www.w3.org/2000/svg" xmlns:xlink="http://www.w3.org/1999/xlink" preserveAspectRatio="xMidYMid" width="47" height="43" viewBox="0 0 47 43">
  <defs>
    <style>

      .cls-2 {
        fill: #000000;
        filter: url(#color-overlay-1);
      }
    </style>

    <filter id="color-overlay-1" filterUnits="userSpaceOnUse">
      <feFlood flood-color="#718a9c" flood-opacity="1"/>
      <feComposite operator="in" in2="SourceGraphic"/>
      <feBlend mode="normal" in2="SourceGraphic" result="colorOverlay"/>
    </filter>
  </defs>
  <path d="M42.402,-0.000 C42.340,-0.000 42.282,0.014 42.221,0.018 C42.221,0.018 37.313,0.018 37.313,0.018 C37.313,0.018 37.313,-0.000 37.313,-0.000 C37.313,-0.000 8.480,-0.000 8.480,-0.000 C8.480,-0.000 8.480,0.018 8.480,0.018 C8.480,0.018 3.573,0.018 3.573,0.018 C3.511,0.014 3.454,-0.000 3.392,-0.000 C1.519,-0.000 -0.000,1.525 -0.000,3.407 C-0.000,4.353 0.385,5.208 1.005,5.825 C1.005,5.825 8.480,13.333 8.480,13.333 C8.480,13.333 8.480,12.776 8.480,12.776 C8.480,20.486 14.484,26.771 22.049,27.213 C22.049,27.213 22.049,40.875 22.049,40.875 C22.049,40.875 15.265,40.875 15.265,40.875 C15.265,40.875 15.265,42.579 15.265,42.579 C15.265,42.579 30.529,42.579 30.529,42.579 C30.529,42.579 30.529,40.875 30.529,40.875 C30.529,40.875 23.745,40.875 23.745,40.875 C23.745,40.875 23.745,27.213 23.745,27.213 C31.310,26.771 37.313,20.486 37.313,12.776 C37.313,12.776 37.313,13.333 37.313,13.333 C37.313,13.333 44.788,5.825 44.788,5.825 C45.409,5.208 45.794,4.353 45.794,3.407 C45.794,1.525 44.275,-0.000 42.402,-0.000 ZM8.480,10.924 C8.480,10.924 2.199,4.616 2.199,4.616 C1.875,4.292 1.696,3.863 1.696,3.407 C1.696,2.491 2.419,1.741 3.323,1.705 C3.375,1.712 3.427,1.716 3.481,1.719 C3.481,1.719 3.527,1.721 3.527,1.721 C3.527,1.721 3.573,1.721 3.573,1.721 C3.573,1.721 8.480,1.721 8.480,1.721 C8.480,1.721 8.480,10.924 8.480,10.924 ZM35.617,12.776 C35.617,19.822 29.910,25.553 22.897,25.553 C15.883,25.553 10.176,19.822 10.176,12.776 C10.176,12.776 10.176,1.704 10.176,1.704 C10.176,1.704 35.617,1.704 35.617,1.704 C35.617,1.704 35.617,12.776 35.617,12.776 ZM43.595,4.616 C43.595,4.616 37.313,10.924 37.313,10.924 C37.313,10.924 37.313,1.721 37.313,1.721 C37.313,1.721 42.221,1.721 42.221,1.721 C42.221,1.721 42.267,1.721 42.267,1.721 C42.267,1.721 42.313,1.719 42.313,1.719 C42.367,1.716 42.419,1.712 42.471,1.705 C43.375,1.741 44.098,2.491 44.098,3.407 C44.098,3.863 43.919,4.292 43.595,4.616 Z" id="path-1" class="cls-2" fill-rule="evenodd"/>
</svg>
