<?xml version="1.0" encoding="utf-8"?>
<!-- Generator: Adobe Illustrator 18.1.1, SVG Export Plug-In . SVG Version: 6.00 Build 0)  -->
<svg version="1.1" id="Layer_1" xmlns="http://www.w3.org/2000/svg" xmlns:xlink="http://www.w3.org/1999/xlink" x="0px" y="0px"
	 viewBox="0 0 595.3 270.9" enable-background="new 0 0 595.3 270.9" xml:space="preserve">
<path fill="#ED174C" d="M135.9,198.8c0,0,199.8-49.1,347.8-14.5l0.5-1.6c0,0-129.1-38.1-345.7,8.3L135.9,198.8z"/>
<path fill="#00305E" d="M231.5,102.5v8.1c0.7-1.6,1.7-3.8,4.2-5.9c2.7-2.3,6.7-3.6,10.6-3.6c2,0,4,0.3,6,1c6.2,2.3,7.9,7.2,8.7,9.3
	c4.8-8.9,12.4-10.2,16.5-10.2c5,0,9.4,1.9,12.3,4.8c5.2,5.1,5.4,10.7,5.4,24.6v32.1h-15.4v-28.5c0-9.6-0.2-11.6-1.8-14.2
	c-1.7-2.8-4.1-3.4-6.4-3.4c-4.2,0-6.3,3-6.6,3.5c-1.7,2.9-1.7,7.9-1.7,12.8v29.7H248v-30.3c0-6.5,0-9.4-1.6-12.1
	c-1.1-2-3.5-3.6-6.3-3.6c-1.4,0-2.7,0.3-4,1c-4.5,2.6-4.6,7-4.6,18.3v26.6h-15.4v-60.2H231.5z"/>
<polygon fill="#00305E" points="356.3,102.5 372,102.5 356.3,162.6 342,162.6 332.9,122 323.9,162.6 309.3,162.6 293.7,102.5 
	309.3,102.5 317.6,140.1 326.1,102.5 339.7,102.5 348,140.1 "/>
<path fill="#00305E" d="M404.2,131.9c0,5.5-0.7,10.7-4,14.6c-2.7,3.1-5.8,3.4-6.7,3.4c-3,0-6.5-1.9-8.6-7.1c-1.3-3-1.7-6.6-1.7-10.3
	c0-4.6,0.6-9.4,3.2-13.2c1.9-2.7,4.8-4.4,7.6-4.4c2.3,0,4.6,1.2,6.2,3C402.4,120,404.2,124.1,404.2,131.9 M405,162.6h15.1v-60.3
	h-14.7v7.8c-2.7-5.8-7.4-9.2-13.4-9.2c-10.2,0-23.6,8.8-23.6,32.5c0,18.8,9.6,30.4,22.5,30.4c8.8,0,12.3-5.1,14.2-7.9V162.6z"/>
<path fill="#00305E" d="M455.6,102.5h15.6L454,162.2c-1.3,4.2-3.2,11-6.3,14.4c-2.8,3-6.2,4.4-18.6,4.4c-1.8,0-2.5-0.1-4.1-0.2
	v-13.4h4.1c1.5,0,4.9,0,6.5-1.5c1.3-1,2.3-3.6,2.3-6c0-1.3-0.6-3.6-1.2-5.1L420,102.5h16.7l9.8,40.5L455.6,102.5z"/>
<path fill="#00305E" d="M181.7,98.5l8.3,31.7h-16.1L181.7,98.5z M172,80.4l-25.8,82.2h19l4.8-17.5h24.2l4.9,17.5h19.1l-26.9-82.2
	H172z"/>
</svg>
