<svg xmlns="http://www.w3.org/2000/svg" xmlns:xlink="http://www.w3.org/1999/xlink" preserveAspectRatio="xMidYMid" width="43" height="44" viewBox="0 0 43 44">
  <defs>
    <style>

      .cls-2 {
        fill: #000000;
        filter: url(#color-overlay-1);
      }
    </style>

    <filter id="color-overlay-1" filterUnits="userSpaceOnUse">
      <feFlood flood-color="#f05242" flood-opacity="1"/>
      <feComposite operator="in" in2="SourceGraphic"/>
      <feBlend mode="normal" in2="SourceGraphic" result="colorOverlay"/>
    </filter>
  </defs>
  <path d="M-0.006,43.615 C-0.006,43.615 -0.006,3.837 -0.006,3.837 C-0.006,3.837 15.997,3.837 15.997,3.837 C16.420,1.668 18.597,0.013 21.226,0.013 C23.855,0.013 26.033,1.668 26.454,3.837 C26.454,3.837 42.457,3.837 42.457,3.837 C42.457,3.837 42.457,43.615 42.457,43.615 C42.457,43.615 -0.006,43.615 -0.006,43.615 ZM25.659,7.790 C25.659,7.790 24.764,7.350 24.764,7.350 C24.764,7.350 24.764,6.460 24.764,6.460 C24.764,6.460 24.764,4.602 24.764,4.602 C24.764,2.915 23.177,1.542 21.226,1.542 C19.275,1.542 17.687,2.915 17.687,4.602 C17.687,4.602 17.687,6.460 17.687,6.460 C17.687,6.460 17.687,7.349 17.687,7.349 C17.687,7.349 16.794,7.790 16.794,7.790 C15.056,8.645 13.724,9.944 12.960,11.487 C12.960,11.487 29.493,11.487 29.493,11.487 C28.729,9.944 27.396,8.645 25.659,7.790 ZM40.688,5.367 C40.688,5.367 26.534,5.367 26.534,5.367 C26.534,5.367 26.534,6.460 26.534,6.460 C29.296,7.820 31.299,10.203 31.842,13.017 C31.842,13.017 10.610,13.017 10.610,13.017 C11.154,10.204 13.156,7.820 15.918,6.460 C15.918,6.460 15.918,5.367 15.918,5.367 C15.918,5.367 1.763,5.367 1.763,5.367 C1.763,5.367 1.763,42.084 1.763,42.084 C1.763,42.084 40.688,42.084 40.688,42.084 C40.688,42.084 40.688,5.367 40.688,5.367 ZM31.842,20.666 C31.842,20.666 10.610,20.666 10.610,20.666 C10.610,20.666 10.610,19.135 10.610,19.135 C10.610,19.135 31.842,19.135 31.842,19.135 C31.842,19.135 31.842,20.666 31.842,20.666 ZM31.842,26.786 C31.842,26.786 10.610,26.786 10.610,26.786 C10.610,26.786 10.610,25.256 10.610,25.256 C10.610,25.256 31.842,25.256 31.842,25.256 C31.842,25.256 31.842,26.786 31.842,26.786 ZM24.764,32.906 C24.764,32.906 10.610,32.906 10.610,32.906 C10.610,32.906 10.610,31.376 10.610,31.376 C10.610,31.376 24.764,31.376 24.764,31.376 C24.764,31.376 24.764,32.906 24.764,32.906 Z" id="path-1" class="cls-2" fill-rule="evenodd"/>
</svg>
