<svg xmlns="http://www.w3.org/2000/svg" xmlns:xlink="http://www.w3.org/1999/xlink" preserveAspectRatio="xMidYMid" width="47" height="44" viewBox="0 0 47 44">
  <defs>
    <style>

      .cls-2 {
        fill: #000000;
        filter: url(#color-overlay-1);
      }
    </style>

    <filter id="color-overlay-1" filterUnits="userSpaceOnUse">
      <feFlood flood-color="#718a9c" flood-opacity="1"/>
      <feComposite operator="in" in2="SourceGraphic"/>
      <feBlend mode="normal" in2="SourceGraphic" result="colorOverlay"/>
    </filter>
  </defs>
  <path d="M28.906,16.670 C28.906,16.670 23.410,-0.005 23.410,-0.005 C23.410,-0.005 17.913,16.670 17.913,16.670 C17.913,16.670 0.005,16.670 0.005,16.670 C0.005,16.670 14.516,26.928 14.516,26.928 C14.516,26.928 8.944,43.597 8.944,43.597 C8.944,43.597 23.410,33.257 23.410,33.257 C23.410,33.257 37.875,43.597 37.875,43.597 C37.875,43.597 32.304,26.928 32.304,26.928 C32.304,26.928 46.816,16.670 46.816,16.670 C46.816,16.670 28.906,16.670 28.906,16.670 ZM30.657,27.463 C30.657,27.463 34.550,39.107 34.550,39.107 C34.550,39.107 24.428,31.873 24.428,31.873 C24.428,31.873 23.410,31.145 23.410,31.145 C23.410,31.145 22.393,31.873 22.393,31.873 C22.393,31.873 12.270,39.107 12.270,39.107 C12.270,39.107 16.162,27.463 16.162,27.463 C16.162,27.463 16.562,26.270 16.562,26.270 C16.562,26.270 15.526,25.539 15.526,25.539 C15.526,25.539 5.399,18.380 5.399,18.380 C5.399,18.380 17.913,18.380 17.913,18.380 C17.913,18.380 19.173,18.380 19.173,18.380 C19.173,18.380 19.562,17.198 19.562,17.198 C19.562,17.198 23.410,5.525 23.410,5.525 C23.410,5.525 27.257,17.198 27.257,17.198 C27.257,17.198 27.647,18.380 27.647,18.380 C27.647,18.380 28.906,18.380 28.906,18.380 C28.906,18.380 41.420,18.380 41.420,18.380 C41.420,18.380 31.294,25.539 31.294,25.539 C31.294,25.539 30.259,26.270 30.259,26.270 C30.259,26.270 30.657,27.463 30.657,27.463 Z" id="path-1" class="cls-2" fill-rule="evenodd"/>
</svg>
