<svg xmlns="http://www.w3.org/2000/svg" xmlns:xlink="http://www.w3.org/1999/xlink" preserveAspectRatio="xMidYMid" width="44" height="44" viewBox="0 0 44 44">
  <defs>
    <style>

      .cls-2 {
        fill: #000000;
        filter: url(#color-overlay-1);
      }
    </style>

    <filter id="color-overlay-1" filterUnits="userSpaceOnUse">
      <feFlood flood-color="#718a9c" flood-opacity="1"/>
      <feComposite operator="in" in2="SourceGraphic"/>
      <feBlend mode="normal" in2="SourceGraphic" result="colorOverlay"/>
    </filter>
  </defs>
  <path d="M42.374,43.615 C42.374,43.615 1.358,43.615 1.358,43.615 C0.600,43.615 -0.013,43.003 -0.013,42.248 C-0.013,42.248 -0.013,10.600 -0.013,10.600 C-0.013,10.600 -0.013,10.462 -0.013,10.462 C-0.013,10.462 -0.013,4.111 -0.013,4.111 C-0.013,1.848 1.830,0.013 4.100,0.013 C4.100,0.013 32.339,0.013 32.339,0.013 C34.612,0.013 36.452,1.848 36.452,4.111 C36.452,4.111 36.452,9.097 36.452,9.097 C36.452,9.097 42.374,9.097 42.374,9.097 C43.131,9.097 43.745,9.708 43.745,10.462 C43.745,10.462 43.745,42.248 43.745,42.248 C43.745,43.003 43.131,43.615 42.374,43.615 ZM34.629,4.111 C34.629,2.853 33.602,1.829 32.339,1.829 C32.339,1.829 4.100,1.829 4.100,1.829 C2.838,1.829 1.810,2.853 1.810,4.111 C1.810,4.111 1.810,9.097 1.810,9.097 C1.810,9.097 34.629,9.097 34.629,9.097 C34.629,9.097 34.629,4.111 34.629,4.111 ZM41.922,10.914 C41.922,10.914 36.421,10.914 36.421,10.914 C36.421,10.914 34.597,10.914 34.597,10.914 C34.597,10.914 1.842,10.914 1.842,10.914 C1.842,10.914 1.810,10.914 1.810,10.914 C1.810,10.914 1.810,41.797 1.810,41.797 C1.810,41.797 41.922,41.797 41.922,41.797 C41.922,41.797 41.922,10.914 41.922,10.914 ZM33.718,21.814 C36.236,21.814 38.276,23.848 38.276,26.356 C38.276,28.864 36.236,30.896 33.718,30.896 C31.201,30.896 29.159,28.864 29.159,26.356 C29.159,23.848 31.201,21.814 33.718,21.814 ZM33.718,29.079 C35.226,29.079 36.452,27.858 36.452,26.356 C36.452,24.854 35.226,23.632 33.718,23.632 C32.210,23.632 30.983,24.854 30.983,26.356 C30.983,27.858 32.210,29.079 33.718,29.079 Z" id="path-1" class="cls-2" fill-rule="evenodd"/>
</svg>
