<svg xmlns="http://www.w3.org/2000/svg" xmlns:xlink="http://www.w3.org/1999/xlink" preserveAspectRatio="xMidYMid" width="46" height="42" viewBox="0 0 46 42">
  <defs>
    <style>

      .cls-2 {
        fill: #000000;
        filter: url(#color-overlay-1);
      }
    </style>

    <filter id="color-overlay-1" filterUnits="userSpaceOnUse">
      <feFlood flood-color="#718a9c" flood-opacity="1"/>
      <feComposite operator="in" in2="SourceGraphic"/>
      <feBlend mode="normal" in2="SourceGraphic" result="colorOverlay"/>
    </filter>
  </defs>
  <path d="M33.004,1.841 C39.053,1.841 43.958,6.808 43.958,12.936 C43.958,16.084 42.662,18.920 40.583,20.940 C40.583,20.940 22.893,38.949 22.893,38.949 C22.893,38.949 4.882,20.616 4.882,20.616 C2.992,18.622 1.828,15.919 1.828,12.936 C1.828,6.808 6.733,1.841 12.782,1.841 C17.337,1.841 21.242,4.659 22.893,8.668 C24.544,4.659 28.449,1.841 33.004,1.841 M33.004,-0.015 C28.975,-0.015 25.275,1.881 22.893,5.004 C20.511,1.881 16.811,-0.015 12.782,-0.015 C5.732,-0.015 -0.004,5.795 -0.004,12.936 C-0.004,16.291 1.261,19.475 3.561,21.901 C3.561,21.901 21.594,40.258 21.594,40.258 C21.594,40.258 22.893,41.579 22.893,41.579 C22.893,41.579 24.192,40.258 24.192,40.258 C24.192,40.258 41.882,22.250 41.882,22.250 C44.391,19.811 45.790,16.493 45.790,12.936 C45.790,5.795 40.054,-0.015 33.004,-0.015 C33.004,-0.015 33.004,-0.015 33.004,-0.015 Z" id="path-1" class="cls-2" fill-rule="evenodd"/>
</svg>
