<svg xmlns="http://www.w3.org/2000/svg" xmlns:xlink="http://www.w3.org/1999/xlink" preserveAspectRatio="xMidYMid" width="42" height="42" viewBox="0 0 42 42">
  <defs>
    <style>

      .cls-2 {
        fill: #000000;
        filter: url(#color-overlay-1);
      }
    </style>

    <filter id="color-overlay-1" filterUnits="userSpaceOnUse">
      <feFlood flood-color="#718a9c" flood-opacity="1"/>
      <feComposite operator="in" in2="SourceGraphic"/>
      <feBlend mode="normal" in2="SourceGraphic" result="colorOverlay"/>
    </filter>
  </defs>
  <path d="M34.375,36.150 C34.375,36.150 37.908,40.502 37.908,40.502 C37.908,40.502 36.549,41.568 36.549,41.568 C36.549,41.568 33.004,37.202 33.004,37.202 C29.585,39.612 25.398,41.035 20.871,41.035 C16.324,41.035 12.120,39.600 8.692,37.171 C8.692,37.171 5.126,41.568 5.126,41.568 C5.126,41.568 3.766,40.502 3.766,40.502 C3.766,40.502 7.325,36.114 7.325,36.114 C2.850,32.351 0.009,26.760 0.009,20.516 C0.009,9.182 9.349,-0.004 20.871,-0.004 C32.393,-0.004 41.733,9.182 41.733,20.516 C41.733,26.781 38.874,32.386 34.375,36.150 ZM20.871,1.706 C10.327,1.706 1.748,10.144 1.748,20.516 C1.748,30.887 10.327,39.325 20.871,39.325 C31.416,39.325 39.994,30.887 39.994,20.516 C39.994,10.144 31.416,1.706 20.871,1.706 ZM20.962,34.195 C13.280,34.195 7.054,28.070 7.054,20.516 C7.054,12.959 13.280,6.836 20.962,6.836 C28.643,6.836 34.870,12.959 34.870,20.516 C34.870,28.070 28.643,34.195 20.962,34.195 ZM20.962,8.546 C14.252,8.546 8.793,13.915 8.793,20.516 C8.793,27.116 14.252,32.485 20.962,32.485 C27.672,32.485 33.131,27.116 33.131,20.516 C33.131,13.915 27.672,8.546 20.962,8.546 ZM20.963,27.356 C17.122,27.356 14.008,24.292 14.008,20.516 C14.008,16.737 17.122,13.675 20.963,13.675 C24.804,13.675 27.916,16.737 27.916,20.516 C27.916,24.292 24.804,27.356 20.963,27.356 ZM20.963,15.385 C18.087,15.385 15.746,17.686 15.746,20.516 C15.746,23.344 18.087,25.645 20.963,25.645 C23.838,25.645 26.177,23.344 26.177,20.516 C26.177,17.686 23.838,15.385 20.963,15.385 Z" id="path-1" class="cls-2" fill-rule="evenodd"/>
</svg>
