<svg xmlns="http://www.w3.org/2000/svg" xmlns:xlink="http://www.w3.org/1999/xlink" preserveAspectRatio="xMidYMid" width="53" height="47" viewBox="0 0 53 47">
  <defs>
    <style>

      .cls-2 {
        fill: #000000;
        filter: url(#color-overlay-1);
      }
    </style>

    <filter id="color-overlay-1" filterUnits="userSpaceOnUse">
      <feFlood flood-color="#718a9c" flood-opacity="1"/>
      <feComposite operator="in" in2="SourceGraphic"/>
      <feBlend mode="normal" in2="SourceGraphic" result="colorOverlay"/>
    </filter>
  </defs>
  <path d="M52.932,36.499 C52.932,36.499 52.932,-0.005 52.932,-0.005 C52.932,-0.005 0.014,-0.005 0.014,-0.005 C0.014,-0.005 0.014,36.499 0.014,36.499 C0.014,36.499 25.455,36.499 25.455,36.499 C25.455,36.499 25.455,44.611 25.455,44.611 C25.455,44.611 18.332,44.611 18.332,44.611 C18.332,44.611 18.332,46.638 18.332,46.638 C18.332,46.638 34.614,46.638 34.614,46.638 C34.614,46.638 34.614,44.611 34.614,44.611 C34.614,44.611 27.491,44.611 27.491,44.611 C27.491,44.611 27.491,36.499 27.491,36.499 C27.491,36.499 52.932,36.499 52.932,36.499 ZM2.050,2.024 C2.050,2.024 50.896,2.024 50.896,2.024 C50.896,2.024 50.896,34.471 50.896,34.471 C50.896,34.471 2.050,34.471 2.050,34.471 C2.050,34.471 2.050,2.024 2.050,2.024 Z" id="path-1" class="cls-2" fill-rule="evenodd"/>
</svg>
