<?xml version="1.0" encoding="utf-8"?>
<!-- Generator: Adobe Illustrator 21.0.2, SVG Export Plug-In . SVG Version: 6.00 Build 0)  -->
<svg version="1.1" id="Layer_1" xmlns="http://www.w3.org/2000/svg" xmlns:xlink="http://www.w3.org/1999/xlink" x="0px" y="0px"
	 width="297.9px" height="335px" viewBox="0 0 297.9 335" enable-background="new 0 0 297.9 335" xml:space="preserve">
<path fill="#3EB5F1" d="M285,1H14C6.8,1,1,6.8,1,14v307.6c0,7.1,5.8,12.9,13,12.9h271c7.1,0,12.9-5.8,12.9-12.9V14
	C297.9,6.8,292.1,1,285,1z M49.8,293.7c0,5.7-4.6,10.4-10.4,10.4h-7.9c-5.7,0-10.4-4.7-10.4-10.4v-7.9c0-5.7,4.6-10.4,10.4-10.4h7.9
	c5.7,0,10.4,4.6,10.4,10.4V293.7z M49.8,232.4c0,5.7-4.6,10.4-10.4,10.4h-7.9c-5.7,0-10.4-4.7-10.4-10.4v-7.9
	c0-5.7,4.6-10.4,10.4-10.4h7.9c5.7,0,10.4,4.7,10.4,10.4V232.4z M49.8,171c0,5.7-4.6,10.4-10.4,10.4h-7.9c-5.7,0-10.4-4.6-10.4-10.4
	v-7.9c0-5.7,4.6-10.4,10.4-10.4h7.9c5.7,0,10.4,4.6,10.4,10.4V171z M49.8,109.7c0,5.7-4.6,10.4-10.4,10.4h-7.9
	c-5.7,0-10.4-4.6-10.4-10.4v-7.9c0-5.7,4.6-10.4,10.4-10.4h7.9c5.7,0,10.4,4.6,10.4,10.4V109.7z M49.8,48.4
	c0,5.7-4.6,10.4-10.4,10.4h-7.9c-5.7,0-10.4-4.6-10.4-10.4v-7.9c0-5.7,4.6-10.4,10.4-10.4h7.9c5.7,0,10.4,4.6,10.4,10.4V48.4z
	 M229.7,295.8c0,7.2-5.8,12.9-13,12.9H82.2c-7.1,0-13-5.8-13-12.9V194.4c0-7.2,5.8-13,13-13h134.5c7.1,0,13,5.8,13,13V295.8z
	 M229.7,139.8c0,7.2-5.8,13-13,13H82.2c-7.1,0-13-5.8-13-13V38.3c0-7.2,5.8-13,13-13h134.5c7.1,0,13,5.8,13,13V139.8z M278.1,293.7
	c0,5.7-4.6,10.4-10.4,10.4h-7.9c-5.7,0-10.4-4.7-10.4-10.4v-7.9c0-5.7,4.6-10.4,10.4-10.4h7.9c5.7,0,10.4,4.6,10.4,10.4V293.7z
	 M278.1,232.4c0,5.7-4.6,10.4-10.4,10.4h-7.9c-5.7,0-10.4-4.7-10.4-10.4v-7.9c0-5.7,4.6-10.4,10.4-10.4h7.9
	c5.7,0,10.4,4.7,10.4,10.4V232.4z M278.1,171c0,5.7-4.6,10.4-10.4,10.4h-7.9c-5.7,0-10.4-4.6-10.4-10.4v-7.9
	c0-5.7,4.6-10.4,10.4-10.4h7.9c5.7,0,10.4,4.6,10.4,10.4V171z M278.1,109.7c0,5.7-4.6,10.4-10.4,10.4h-7.9
	c-5.7,0-10.4-4.6-10.4-10.4v-7.9c0-5.7,4.6-10.4,10.4-10.4h7.9c5.7,0,10.4,4.6,10.4,10.4V109.7z M278.1,48.4
	c0,5.7-4.6,10.4-10.4,10.4h-7.9c-5.7,0-10.4-4.6-10.4-10.4v-7.9c0-5.7,4.6-10.4,10.4-10.4h7.9c5.7,0,10.4,4.6,10.4,10.4V48.4z"/>
</svg>
