<?xml version="1.0" encoding="utf-8"?>
<!-- Generator: Adobe Illustrator 21.0.2, SVG Export Plug-In . SVG Version: 6.00 Build 0)  -->
<svg version="1.1" id="Layer_1" xmlns="http://www.w3.org/2000/svg" xmlns:xlink="http://www.w3.org/1999/xlink" x="0px" y="0px"
	 width="23.1px" height="23.1px" viewBox="0 0 23.1 23.1" enable-background="new 0 0 23.1 23.1" xml:space="preserve">
<path fill="#1A1A1A" d="M11.5,0C5.2,0,0,5.2,0,11.5c0,6.4,5.2,11.5,11.5,11.5s11.5-5.2,11.5-11.5C23.1,5.2,17.9,0,11.5,0z
	 M11.5,20.8c-5.1,0-9.3-4.2-9.3-9.3c0-0.3,0.3-0.6,0.6-0.6c0.3,0,0.6,0.3,0.6,0.6c0,4.4,3.6,8.1,8.1,8.1c0.3,0,0.6,0.3,0.6,0.6
	C12.1,20.5,11.9,20.8,11.5,20.8z M11.5,17.7c-3.4,0-6.2-2.8-6.2-6.2c0-0.3,0.3-0.6,0.6-0.6s0.6,0.3,0.6,0.6c0,2.7,2.2,4.9,4.9,4.9
	c0.3,0,0.6,0.3,0.6,0.6C12.1,17.4,11.9,17.7,11.5,17.7z M11.5,14C10.2,14,9,12.9,9,11.5C9,10.2,10.2,9,11.5,9c1.4,0,2.5,1.1,2.5,2.5
	C14,12.9,12.9,14,11.5,14z M17.1,12.1c-0.3,0-0.6-0.3-0.6-0.6c0-2.7-2.2-4.9-4.9-4.9c-0.3,0-0.6-0.3-0.6-0.6c0-0.3,0.3-0.6,0.6-0.6
	c3.4,0,6.2,2.8,6.2,6.2C17.7,11.9,17.4,12.1,17.1,12.1z M20.2,12.1c-0.3,0-0.6-0.3-0.6-0.6c0-4.4-3.6-8.1-8.1-8.1
	c-0.3,0-0.6-0.3-0.6-0.6c0-0.3,0.3-0.6,0.6-0.6c5.1,0,9.3,4.2,9.3,9.3C20.8,11.9,20.5,12.1,20.2,12.1z"/>
</svg>
