<?xml version="1.0" encoding="utf-8"?>
<!-- Generator: Adobe Illustrator 21.0.2, SVG Export Plug-In . SVG Version: 6.00 Build 0)  -->
<svg version="1.1" id="Layer_1" xmlns="http://www.w3.org/2000/svg" xmlns:xlink="http://www.w3.org/1999/xlink" x="0px" y="0px"
	 width="20.7px" height="20.4px" viewBox="0 0 20.7 20.4" enable-background="new 0 0 20.7 20.4" xml:space="preserve">
<g>
	<path fill="#424243" d="M19.3,1.6h-0.9c-0.4,0-0.6,0.3-0.6,0.6v1.5c0,1.1-0.9,2-2,2s-2-0.9-2-2V2.2c0-0.4-0.3-0.6-0.6-0.6H7.8
		c-0.4,0-0.6,0.3-0.6,0.6v1.5c0,1.1-0.9,2-2,2s-2-0.9-2-2V2.2c0-0.4-0.3-0.6-0.6-0.6h-1C0.6,1.6,0,2.2,0,3V19c0,0.8,0.6,1.4,1.4,1.4
		h17.9c0.8,0,1.4-0.6,1.4-1.4V3C20.7,2.2,20.1,1.6,19.3,1.6z M18.8,17.8C18.8,17.9,18.8,17.9,18.8,17.8c0,0.4-0.3,0.6-0.6,0.6
		c0,0,0,0,0,0c0,0,0,0,0,0H2.6c0,0,0,0,0,0c0,0,0,0,0,0c-0.3,0-0.6-0.3-0.6-0.6c0,0,0,0,0,0s0,0,0,0V7.4c0,0,0,0,0,0c0,0,0,0,0,0
		c0-0.3,0.3-0.6,0.6-0.6h15.6c0.3,0,0.6,0.3,0.6,0.6c0,0,0,0,0,0c0,0,0,0,0,0V17.8C18.8,17.8,18.8,17.8,18.8,17.8z"/>
	<path fill="#424243" d="M15.7,4.8c0.6,0,1.1-0.5,1.1-1.1h0V2.8V2.1v0V1.6V1.3V1c-0.1-0.5-0.5-1-1.1-1c-0.6,0-1.1,0.5-1.1,1.1h0v0.5
		V2v0v0.8v0.8v0.3C14.7,4.4,15.2,4.8,15.7,4.8z"/>
	<path fill="#424243" d="M5.1,4.8c0.6,0,1.1-0.5,1.1-1.1h0V2.8V2.1V2V1.6V1.3V1C6.1,0.4,5.7,0,5.1,0C4.5,0,4,0.5,4,1.1h0v0.5V2v0
		v0.8v0.8v0.3C4.1,4.4,4.5,4.8,5.1,4.8z"/>
	<g>
		<path fill="#424243" d="M7.5,8.8H7c-0.1,0-0.1,0-0.2,0l0,0L5.4,9.2h0l-0.1,0C5,9.3,4.8,9.6,4.8,9.9c0,0.1,0,0.1,0,0.2
			c0.1,0.3,0.4,0.5,0.7,0.5c0,0,0.1,0,0.1,0c0,0,0,0,0,0l0.1,0c0,0,0,0,0,0l0.2,0c0,0,0,0,0,0c0,0,0,0,0.1,0c0.2,0,0.3,0.1,0.3,0.3
			c0,0,0,0,0,0c0,0,0,0,0,0v4.7c0,0.5,0.4,0.8,0.8,0.8c0.5,0,0.8-0.4,0.8-0.8V9.3C8,9,7.8,8.8,7.5,8.8z"/>
		<path fill="#424243" d="M13,8.6c-2,0-3.4,1.7-3.4,4v0c0,2.2,1.3,3.9,3.4,3.9c2,0,3.4-1.7,3.4-4v0C16.4,10.4,15.1,8.6,13,8.6z
			 M14.7,12.6c0,1.4-0.6,2.4-1.7,2.4s-1.7-1-1.7-2.4v0c0-1.4,0.7-2.4,1.7-2.4C14,10.2,14.7,11.2,14.7,12.6L14.7,12.6z"/>
	</g>
</g>
</svg>
