<svg xmlns="http://www.w3.org/2000/svg" xmlns:xlink="http://www.w3.org/1999/xlink" preserveAspectRatio="xMidYMid" width="23" height="23" viewBox="0 0 23 23">
  <defs>
    <style>

      .cls-2 {
        fill: #ffffff;
      }
    </style>
  </defs>
  <path d="M21.804,17.932 C21.804,17.932 16.858,13.032 16.858,13.032 C17.521,11.783 17.897,10.379 17.897,8.881 C17.897,4.009 13.894,0.014 8.949,0.014 C4.033,0.014 0.001,3.980 0.001,8.881 C0.001,13.781 4.033,17.715 8.981,17.715 C10.621,17.715 12.164,17.279 13.486,16.498 C13.486,16.498 18.370,21.335 18.370,21.335 C18.842,21.771 19.441,22.023 20.103,22.023 C20.765,22.023 21.363,21.774 21.804,21.306 C22.749,20.398 22.749,18.868 21.804,17.932 ZM13.264,15.246 C12.036,16.059 10.554,16.527 8.946,16.527 C4.695,16.558 1.197,13.093 1.197,8.845 C1.197,4.599 4.695,1.133 8.981,1.133 C13.267,1.133 16.765,4.599 16.765,8.845 C16.765,10.283 16.357,11.624 15.662,12.781 C15.662,12.781 15.630,12.812 15.630,12.812 C15.029,13.781 14.209,14.622 13.264,15.246 ZM20.984,20.525 C20.511,20.994 19.659,20.994 19.187,20.525 C19.187,20.525 14.460,15.842 14.460,15.842 C14.492,15.842 14.492,15.810 14.524,15.810 C15.155,15.310 15.753,14.717 16.225,14.061 C16.225,14.061 20.984,18.776 20.984,18.776 C21.489,19.245 21.489,20.025 20.984,20.525 Z" id="path-1" class="cls-2" fill-rule="evenodd"/>
</svg>
