<?xml version="1.0" encoding="utf-8"?>
<!-- Generator: Adobe Illustrator 21.0.2, SVG Export Plug-In . SVG Version: 6.00 Build 0)  -->
<svg version="1.1" id="Layer_1" xmlns="http://www.w3.org/2000/svg" xmlns:xlink="http://www.w3.org/1999/xlink" x="0px" y="0px"
	 width="50px" height="50px" viewBox="0 0 50 50" enable-background="new 0 0 50 50" xml:space="preserve">
<path fill="#54769B" d="M45.8,0H4.2C1.9,0,0,1.9,0,4.2v41.7C0,48.1,1.9,50,4.2,50h41.7c2.3,0,4.2-1.9,4.2-4.2V4.2
	C50,1.9,48.1,0,45.8,0z M37.5,28.1c2.4,2.4,3.1,3.5,3.1,4.2c0,2-2.1,2.1-2.1,2.1s-2.1,0-3.1,0c-1,0-1,0-2.1-1
	c-1.4-1.4-3.1-3.1-4.2-3.1c-1,0-2.1,1-2.1,2.1c0,0.6,0,2.1-1,2.1c-1,0-0.5,0-1,0c-2.1-0.1-4.5-0.3-8.1-4.1c-4-4.2-5.4-7.4-7.5-12.6
	c-0.1-0.4,0-1,1-1s2,0,3.1,0c1,0,1.2-0.2,2.1,1c2.1,3.1,4.2,7.3,5.2,7.3c1,0,1-4.2,1-4.2s0-1,0-2.1c0-1.5-1.8-1-2.1-1
	c-0.2,0,1-1,1-1s1.5-1,3.1-1c1,0,3.1,0,3.1,0c1.6,0.4,1,2.8,1,6.3c0,1.1,0.1,3.1,1,3.1c0.9,0,1-1,2.1-3.1c0.6-1.4,1-2.1,3.1-5.2
	c0.7-0.9,6,0.1,6.3,0.7s-1.3,2.9-3.1,5.5C34.4,27.1,35.4,26,37.5,28.1z"/>
</svg>
