<?xml version="1.0" encoding="utf-8"?>
<!-- Generator: Adobe Illustrator 21.0.2, SVG Export Plug-In . SVG Version: 6.00 Build 0)  -->
<svg version="1.1" id="Layer_1" xmlns="http://www.w3.org/2000/svg" xmlns:xlink="http://www.w3.org/1999/xlink" x="0px" y="0px"
	 width="50px" height="50px" viewBox="0 0 50 50" enable-background="new 0 0 50 50" xml:space="preserve">
<g>
	<path fill="#3B5998" d="M50,46.9c0,1.7-1.4,3.1-3.1,3.1H3.1C1.4,50,0,48.6,0,46.9V3.1C0,1.4,1.4,0,3.1,0h43.8C48.6,0,50,1.4,50,3.1
		V46.9z"/>
	<path id="f" fill="#FFFFFF" d="M34.4,50V31.3h6.3l1.6-7.8h-7.8v-3.1c0-3.1,1.6-4.7,4.7-4.7h3.1V7.8c-1.6,0-3.5,0-6.3,0
		c-5.7,0-9.4,4.5-9.4,10.9v4.7h-6.3v7.8h6.3V50H34.4z"/>
</g>
</svg>
