<?xml version="1.0" encoding="utf-8"?>
<!-- Generator: Adobe Illustrator 21.0.2, SVG Export Plug-In . SVG Version: 6.00 Build 0)  -->
<svg version="1.1" id="Layer_1" xmlns="http://www.w3.org/2000/svg" xmlns:xlink="http://www.w3.org/1999/xlink" x="0px" y="0px"
	 width="276.3px" height="326px" viewBox="0 0 276.3 326" enable-background="new 0 0 276.3 326" xml:space="preserve">
<path fill="#3EB5F1" d="M260.2,0c-0.5,0-1,0-1.5,0.1l-2.3,0.4L98.9,26l-5.3,0.9C83.5,29.7,76,39,76,50c0,0.1,0,0.1,0,0.1
	c0,0.1,0,0.1,0,0.1l0,179.2h0c0,5-3.4,9.2-8,10.4c-0.8,0.2-1.6,0.3-2.5,0.4l-33.2,4.7C14.5,247.3,0,263.9,0,281.7v16.2
	c0,17.9,14.5,30.3,32.3,27.7l37.7-5.4c17.9-2.5,32.3-19.1,32.3-36.9v-0.8h0V133.2c0-0.4,0-0.8,0-1.3c0-0.4,0-0.8,0-1.2
	c0.5-10.8,8.2-19.7,18.4-22.2c1.3-0.3,2.6-0.5,3.9-0.6l105.7-16.6c0.5-0.1,1-0.2,1.5-0.2c0.6-0.1,1.2-0.1,1.8-0.1
	c8.9,0,16.1,7.2,16.1,16.1V194c0,5-3.4,9.2-8,10.4c0,0,0,0,0,0c-0.7,0.2-1.5,0.3-2.3,0.3l-33.3,4.7c-17.9,2.5-32.3,19.1-32.3,36.9
	v16.2c0,17.9,14.5,30.3,32.3,27.7l37.7-5.4c17.9-2.5,32.3-19.1,32.3-36.9v-0.7v-15.5V16.1C276.3,7.2,269.1,0,260.2,0z"/>
</svg>
