<svg xmlns="http://www.w3.org/2000/svg" xmlns:xlink="http://www.w3.org/1999/xlink" preserveAspectRatio="xMidYMid" width="24" height="24" viewBox="0 0 24 24">
  <defs>
    <style>

      .cls-2 {
        fill: #ffffff;
      }
    </style>
  </defs>
  <path d="M24.250,12.090 C24.250,5.424 18.805,-0.008 12.123,-0.008 C5.441,-0.008 -0.000,5.424 -0.000,12.090 C-0.000,15.762 1.669,19.065 4.267,21.285 C4.299,21.317 4.330,21.349 4.390,21.376 C6.493,23.137 9.185,24.185 12.155,24.185 C15.062,24.185 17.754,23.137 19.856,21.440 C19.979,21.408 20.074,21.317 20.134,21.223 C22.643,18.971 24.250,15.731 24.250,12.090 ZM1.114,12.090 C1.114,6.041 6.063,1.104 12.126,1.104 C18.189,1.104 23.138,6.041 23.138,12.090 C23.138,15.053 21.964,17.736 20.045,19.713 C19.736,18.262 18.808,15.794 15.961,14.190 C16.611,13.387 16.981,12.339 16.981,11.228 C16.981,8.573 14.816,6.412 12.155,6.412 C9.494,6.412 7.329,8.573 7.329,11.228 C7.329,12.339 7.730,13.356 8.348,14.190 C5.476,15.794 4.548,18.262 4.270,19.713 C2.320,17.768 1.114,15.053 1.114,12.090 ZM8.414,11.256 C8.414,9.219 10.084,7.553 12.126,7.553 C14.168,7.553 15.838,9.219 15.838,11.256 C15.838,13.293 14.168,14.959 12.126,14.959 C10.084,14.959 8.414,13.293 8.414,11.256 ZM5.258,20.669 C5.321,19.774 5.814,16.748 9.156,15.051 C9.992,15.699 11.012,16.068 12.126,16.068 C13.240,16.068 14.291,15.668 15.128,15.019 C18.438,16.716 18.963,19.679 19.057,20.637 C17.170,22.148 14.758,23.074 12.161,23.074 C9.528,23.077 7.146,22.183 5.258,20.669 Z" id="path-1" class="cls-2" fill-rule="evenodd"/>
</svg>
